<svg xmlns="http://www.w3.org/2000/svg" xmlns:xlink="http://www.w3.org/1999/xlink" viewBox="0 0 469.46 108.09"><defs><style>.a{fill:none;}.b{fill:#13110c;}.c{clip-path:url(#a);}.d{fill:#44423f;}.d,.e,.f,.i{fill-rule:evenodd;}.e{fill:#ed7801;}.f{fill:#fdc300;}.g{clip-path:url(#b);}.h{fill:url(#c);}.i{fill:#991005;}.j{clip-path:url(#e);}.k{fill:url(#f);}.l{fill:#1d1d1b;}</style><clipPath id="a"><rect class="a" x="-27.04" y="-19.54" width="522" height="149.85"/></clipPath><clipPath id="b"><path class="a" d="M0.95,81.16L0,81.35V94.13a14.4,14.4,0,0,0,14.33,13.64h7.48V75.45A187.45,187.45,0,0,1,.95,81.16"/></clipPath><linearGradient id="c" x1="-27.05" y1="130.34" x2="-26.05" y2="130.34" gradientTransform="matrix(40.5, 0, 0, -40.5, 1096.44, 5370.88)" gradientUnits="userSpaceOnUse"><stop offset="0" stop-color="#f49700"/><stop offset="0.13" stop-color="#f7a600"/><stop offset="0.34" stop-color="#fab700"/><stop offset="0.57" stop-color="#fcc100"/><stop offset="0.85" stop-color="#fdc400"/><stop offset="1" stop-color="#fdc400"/></linearGradient><clipPath id="e"><path class="a" d="M88.4,33.59a13.31,13.31,0,0,1,.27-26.26,14.35,14.35,0,0,1,2-.15,13.3,13.3,0,1,1-2.3,26.41M77,5.28A20.49,20.49,0,1,0,90.7,0,20.43,20.43,0,0,0,77,5.28"/></clipPath><linearGradient id="f" x1="-27.04" y1="130.3" x2="-26.04" y2="130.3" gradientTransform="matrix(53.14, 0, 0, -53.14, 1505.17, 6944.71)" xlink:href="#c"/></defs><title>logo_forecasts</title><rect class="b" x="130.78" y="68.3" width="5.26" height="39.79"/><polygon class="b" points="151.95 108.09 151.95 68.3 157.35 68.3 178.25 99.54 178.25 68.3 183.3 68.3 183.3 108.09 177.89 108.09 157 76.82 157 108.09 151.95 108.09"/><polygon class="b" points="208.94 108.09 208.94 73 195.83 73 195.83 68.3 227.37 68.3 227.37 73 214.21 73 214.21 108.09 208.94 108.09"/><polygon class="b" points="239.56 108.09 239.56 68.3 268.32 68.3 268.32 73 244.82 73 244.82 85.18 266.83 85.18 266.83 89.85 244.82 89.85 244.82 103.4 269.25 103.4 269.25 108.09 239.56 108.09"/><polygon class="b" points="283.14 108.09 283.14 68.3 288.54 68.3 309.44 99.54 309.44 68.3 314.49 68.3 314.49 108.09 309.09 108.09 288.19 76.82 288.19 108.09 283.14 108.09"/><g class="c"><path class="b" d="M328.22,95.31l5-.44a10.86,10.86,0,0,0,1.65,4.9,8.89,8.89,0,0,0,4,3.1,15.09,15.09,0,0,0,6.11,1.19,14.64,14.64,0,0,0,5.32-.9,7.35,7.35,0,0,0,3.43-2.46,5.73,5.73,0,0,0,1.13-3.41A5.18,5.18,0,0,0,353.74,94a8,8,0,0,0-3.58-2.35,71.13,71.13,0,0,0-7.09-1.94,35.89,35.89,0,0,1-7.68-2.48,10.74,10.74,0,0,1-4.25-3.71,9,9,0,0,1-1.4-4.95A10.12,10.12,0,0,1,331.45,73a10.6,10.6,0,0,1,5-4,19,19,0,0,1,7.31-1.36A19.93,19.93,0,0,1,351.56,69a11.26,11.26,0,0,1,5.19,4.19,12.06,12.06,0,0,1,2,6.27l-5,.38a8.15,8.15,0,0,0-2.75-5.7q-2.35-1.93-6.94-1.93-4.78,0-7,1.75a5.25,5.25,0,0,0-2.19,4.22,4.52,4.52,0,0,0,1.55,3.53q1.52,1.39,7.94,2.84a52.21,52.21,0,0,1,8.81,2.53,12.1,12.1,0,0,1,5.13,4.06,9.89,9.89,0,0,1,1.65,5.66,10.83,10.83,0,0,1-1.81,6,11.93,11.93,0,0,1-5.23,4.37,18.17,18.17,0,0,1-7.67,1.56,22.94,22.94,0,0,1-9-1.57,12.7,12.7,0,0,1-5.73-4.74,13.46,13.46,0,0,1-2.18-7.15"/><rect class="b" x="374.66" y="68.3" width="5.27" height="39.79"/><polygon class="b" points="406.01 108.09 406.01 73 392.89 73 392.89 68.3 424.44 68.3 424.44 73 411.27 73 411.27 108.09 406.01 108.09"/><path class="b" d="M447.72,108.09V91.24L432.39,68.3h6.4l7.84,12q2.17,3.37,4,6.74,1.79-3.13,4.34-7l7.71-11.7h6.13L453,91.24v16.85h-5.27Z"/><path class="d" d="M14.35,6.16A14.38,14.38,0,0,0,0,20.51V71.94H0a189.84,189.84,0,0,0,21.81-7.47q2.29-.94,4.53-2A140.54,140.54,0,0,0,48.17,50.33C49.82,49.2,51.44,48,53,46.81a116.66,116.66,0,0,0,13.48-12c0.4-.41.79-0.83,1.2-1.24,0-.07-0.09-0.14-0.12-0.22a26.45,26.45,0,0,1,.86-27.22H14.35Z"/><path class="e" d="M74.84,46A123.1,123.1,0,0,1,53,61.56v46.21H74.84V46Z"/><path class="f" d="M48.17,64.24a179.53,179.53,0,0,1-21.81,9.64v33.89H48.17V64.24Z"/></g><g class="g"><rect class="h" x="-8.52" y="74.09" width="38.89" height="35.05" transform="translate(-73.88 55.27) rotate(-60)"/></g><g class="c"><path class="i" d="M79.8,44.6v63.17h7.46A14.39,14.39,0,0,0,101.6,93.41V44.6a26.52,26.52,0,0,1-20.34.61c-0.5-.19-1-0.39-1.47-0.61"/></g><g class="j"><rect class="k" x="62.72" y="-7.5" width="55.96" height="55.96" transform="translate(27.61 88.79) rotate(-60)"/></g><g class="c"><path class="i" d="M84.87,14.1a8.54,8.54,0,0,0-2.44,3.84A8.79,8.79,0,0,0,82,20.48a8.66,8.66,0,0,0,8.66,8.66c0.24,0,.49,0,0.73,0a8.66,8.66,0,1,0-6.56-15"/></g><path class="l" d="M130.35,35.81l6.24-29.89H156l-0.71,3.4H139.87l-2,9.52h15.72l-0.71,3.4H137.18l-2.83,13.56h-4Z"/><path class="l" d="M154.75,27.6a15.13,15.13,0,0,1,3.73-10.5,10.34,10.34,0,0,1,8.07-3.42,8.43,8.43,0,0,1,6.31,2.45,9,9,0,0,1,2.4,6.6,16.12,16.12,0,0,1-1.51,6.94,11.2,11.2,0,0,1-4.29,4.92,11,11,0,0,1-5.86,1.71,9.78,9.78,0,0,1-4.6-1.08,7.46,7.46,0,0,1-3.16-3.06A9.3,9.3,0,0,1,154.75,27.6Zm3.69-.37a6.58,6.58,0,0,0,1.47,4.64,4.87,4.87,0,0,0,3.73,1.58A6.1,6.1,0,0,0,166,33a6.78,6.78,0,0,0,2.16-1.46,9.86,9.86,0,0,0,1.7-2.23,13.07,13.07,0,0,0,1.13-2.7,13,13,0,0,0,.63-3.87,6.52,6.52,0,0,0-1.48-4.56,4.82,4.82,0,0,0-3.72-1.62,6.2,6.2,0,0,0-3.16.83,8.45,8.45,0,0,0-2.58,2.42,10.81,10.81,0,0,0-1.69,3.7A15.35,15.35,0,0,0,158.44,27.23Z"/><path class="l" d="M176.06,35.81l4.53-21.65h3.26l-0.92,4.42a15,15,0,0,1,3.27-3.71,5.4,5.4,0,0,1,3.27-1.2,6.41,6.41,0,0,1,2.71.79l-1.51,3.42a3.51,3.51,0,0,0-2.1-.69,5.69,5.69,0,0,0-4,2.16q-2,2.16-3.2,7.77l-1.83,8.68h-3.51Z"/><path class="l" d="M204.95,28.45l3.59,0.37A10.86,10.86,0,0,1,205,33.9a9.81,9.81,0,0,1-6.64,2.41,9,9,0,0,1-4.41-1.11A7.29,7.29,0,0,1,190.87,32a10.74,10.74,0,0,1-1-4.83,15.41,15.41,0,0,1,1.64-6.88,11.72,11.72,0,0,1,4.25-5,10.51,10.51,0,0,1,5.65-1.62,8.19,8.19,0,0,1,6.19,2.41,9.07,9.07,0,0,1,2.31,6.56,19.35,19.35,0,0,1-.29,3.26H193.63a8.94,8.94,0,0,0-.08,1.14,6.85,6.85,0,0,0,1.4,4.64,4.36,4.36,0,0,0,3.41,1.6A6.59,6.59,0,0,0,202.09,32,8.09,8.09,0,0,0,204.95,28.45Zm-10.72-5.36h12.15q0-.57,0-0.82A6,6,0,0,0,205,18a4.67,4.67,0,0,0-3.57-1.48,6.56,6.56,0,0,0-4.31,1.63A9.78,9.78,0,0,0,194.22,23.09Z"/><path class="l" d="M226.58,27.92l3.69,0.39a12.39,12.39,0,0,1-3.94,6,9.3,9.3,0,0,1-5.82,2A7.57,7.57,0,0,1,214.79,34a8.84,8.84,0,0,1-2.19-6.38,18.2,18.2,0,0,1,1.41-7,11.26,11.26,0,0,1,4-5.21,10.37,10.37,0,0,1,6-1.78,7.62,7.62,0,0,1,5.53,2,6.91,6.91,0,0,1,2,5.21l-3.63.24a4.41,4.41,0,0,0-1.19-3.22,4.2,4.2,0,0,0-3.09-1.16,5.71,5.71,0,0,0-3.85,1.41,9.26,9.26,0,0,0-2.56,4.27,17.86,17.86,0,0,0-.93,5.51,6.13,6.13,0,0,0,1.22,4.16,3.87,3.87,0,0,0,3,1.39A5.31,5.31,0,0,0,224,32.08,9,9,0,0,0,226.58,27.92Z"/><path class="l" d="M246.48,33.12a14.66,14.66,0,0,1-3.69,2.42,9.48,9.48,0,0,1-3.79.76,6.68,6.68,0,0,1-4.83-1.76A6,6,0,0,1,232.34,30a6.2,6.2,0,0,1,.83-3.21,6.48,6.48,0,0,1,2.19-2.24,9.65,9.65,0,0,1,3.34-1.21,37.31,37.31,0,0,1,4.72-.39,16.86,16.86,0,0,0,5-.73,9.55,9.55,0,0,0,.43-2.51,2.42,2.42,0,0,0-.94-2,5.93,5.93,0,0,0-3.75-1,6.51,6.51,0,0,0-3.8,1,5.81,5.81,0,0,0-2.15,2.93l-3.73-.33a9.74,9.74,0,0,1,3.62-4.93,10.74,10.74,0,0,1,6.25-1.71,9.76,9.76,0,0,1,6.36,1.92,4.52,4.52,0,0,1,1.79,3.71,18.72,18.72,0,0,1-.51,4l-1.2,5.38a20.15,20.15,0,0,0-.57,4.18,14,14,0,0,0,.45,2.94h-3.73A13.7,13.7,0,0,1,246.48,33.12Zm1.37-8.28a8.89,8.89,0,0,1-1.66.47q-0.89.16-3,.35a22.71,22.71,0,0,0-4.55.72,3.81,3.81,0,0,0-2,1.4A3.61,3.61,0,0,0,236,29.9a3.33,3.33,0,0,0,1.07,2.55,4.3,4.3,0,0,0,3,1,7.21,7.21,0,0,0,6.2-3.67A15.68,15.68,0,0,0,247.85,24.84Z"/><path class="l" d="M254.83,28.41l3.69-.22A6.76,6.76,0,0,0,259,30.9a3.89,3.89,0,0,0,1.8,1.83,6.34,6.34,0,0,0,3.07.71,5.8,5.8,0,0,0,3.67-1,2.89,2.89,0,0,0,1.22-2.3,2.75,2.75,0,0,0-.73-1.81,11.6,11.6,0,0,0-3.68-2.11,34.88,34.88,0,0,1-3.74-1.76,6,6,0,0,1-2.06-2,4.88,4.88,0,0,1-.69-2.6,5.72,5.72,0,0,1,2-4.4,8.23,8.23,0,0,1,5.71-1.83q4.08,0,6.21,1.89a6.56,6.56,0,0,1,2.21,5l-3.61.24a4.15,4.15,0,0,0-1.39-3.1,5.43,5.43,0,0,0-3.69-1.14,4.55,4.55,0,0,0-3,.88,2.48,2.48,0,0,0-1.06,1.9,2.3,2.3,0,0,0,.92,1.79,15.31,15.31,0,0,0,3.16,1.63,21.3,21.3,0,0,1,5.34,2.89,5.51,5.51,0,0,1,1.75,4.12,5.81,5.81,0,0,1-1,3.16,6.81,6.81,0,0,1-3,2.48,11.4,11.4,0,0,1-4.78.93,10.78,10.78,0,0,1-6.38-1.85Q254.69,32.59,254.83,28.41Z"/><path class="l" d="M283.35,32.82l-0.61,3a10.13,10.13,0,0,1-2.57.35,5.32,5.32,0,0,1-3.51-1.08,2.74,2.74,0,0,1-1-2.22,22.25,22.25,0,0,1,.53-3.28L278.85,17h-2.92l0.59-2.85h2.92l1.12-5.32,4.22-2.55-1.65,7.87h3.63L286.15,17h-3.61L280,29a22.41,22.41,0,0,0-.47,2.73,1.29,1.29,0,0,0,.38,1,1.79,1.79,0,0,0,1.23.35A8.86,8.86,0,0,0,283.35,32.82Z"/><path class="l" d="M286,28.41l3.69-.22a6.76,6.76,0,0,0,.49,2.71,3.89,3.89,0,0,0,1.8,1.83,6.34,6.34,0,0,0,3.07.71,5.8,5.8,0,0,0,3.67-1,2.89,2.89,0,0,0,1.22-2.3,2.75,2.75,0,0,0-.73-1.81,11.6,11.6,0,0,0-3.68-2.11,34.88,34.88,0,0,1-3.74-1.76,6,6,0,0,1-2.06-2,4.88,4.88,0,0,1-.69-2.6,5.72,5.72,0,0,1,2-4.4,8.23,8.23,0,0,1,5.71-1.83q4.08,0,6.21,1.89a6.56,6.56,0,0,1,2.21,5l-3.61.24a4.15,4.15,0,0,0-1.39-3.1,5.43,5.43,0,0,0-3.69-1.14,4.55,4.55,0,0,0-3,.88,2.48,2.48,0,0,0-1.06,1.9,2.3,2.3,0,0,0,.92,1.79,15.31,15.31,0,0,0,3.16,1.63A21.3,21.3,0,0,1,302,25.62a5.51,5.51,0,0,1,1.75,4.12,5.81,5.81,0,0,1-1,3.16,6.81,6.81,0,0,1-3,2.48,11.4,11.4,0,0,1-4.78.93,10.78,10.78,0,0,1-6.38-1.85Q285.91,32.59,286,28.41Z"/><path class="l" d="M316.09,35.81l6.24-29.89H326l-2.22,10.68A13.07,13.07,0,0,1,327,14.34a7,7,0,0,1,3-.66A6.52,6.52,0,0,1,335,15.94q2,2.26,2,6.58a16.19,16.19,0,0,1-.82,5.26,14.63,14.63,0,0,1-2,4,12.66,12.66,0,0,1-2.49,2.59,9.89,9.89,0,0,1-2.63,1.45,7.71,7.71,0,0,1-2.59.48,6.45,6.45,0,0,1-3.77-1.13,7.33,7.33,0,0,1-2.55-3.46l-0.86,4.1h-3.24Zm5.46-8.89,0,0.69a6,6,0,0,0,1.33,4.22,4.29,4.29,0,0,0,3.3,1.45,5.42,5.42,0,0,0,3.56-1.36,9.67,9.67,0,0,0,2.66-4.23,15.7,15.7,0,0,0,1-5.3,6.25,6.25,0,0,0-1.31-4.24,4.15,4.15,0,0,0-3.25-1.51,5.31,5.31,0,0,0-3.67,1.54,11.52,11.52,0,0,0-2.79,4.74A12.54,12.54,0,0,0,321.55,26.92Z"/><path class="l" d="M336.88,44.17l0.22-3.47a8.07,8.07,0,0,0,2.22.33,3,3,0,0,0,1.81-.51,8.45,8.45,0,0,0,2-2.53l1.18-2.12-3.61-21.71h3.63l1.63,10.95q0.49,3.24.84,6.48l9.68-17.43h3.85L346.5,38.69A15.69,15.69,0,0,1,343,43.44a5.79,5.79,0,0,1-3.57,1.16A7.54,7.54,0,0,1,336.88,44.17Z"/></svg>