<?xml version="1.0" encoding="utf-8"?>
<!-- Generator: Adobe Illustrator 19.1.0, SVG Export Plug-In . SVG Version: 6.00 Build 0)  -->
<svg version="1.1" id="Layer_1" xmlns="http://www.w3.org/2000/svg" xmlns:xlink="http://www.w3.org/1999/xlink" x="0px" y="0px"
	 viewBox="-303 310 526.8 151.2" style="enable-background:new -303 310 526.8 151.2;" xml:space="preserve">
<style type="text/css">
	.st0{fill:#13110C;}
	.st1{clip-path:url(#SVGID_2_);}
	.st2{fill:#44423F;}
	.st3{fill:#ED7801;}
	.st4{fill:#FDC300;}
	.st5{clip-path:url(#SVGID_4_);}
	.st6{fill:url(#SVGID_5_);}
	.st7{clip-path:url(#SVGID_7_);}
	.st8{fill:#991005;}
	.st9{clip-path:url(#SVGID_9_);}
	.st10{fill:url(#SVGID_10_);}
	.st11{clip-path:url(#SVGID_12_);}
	.st12{font-family:'Arial-ItalicMT';}
	.st13{font-size:40px;}
</style>
<title>logo_forecasts</title>
<rect x="-145.2" y="399.2" class="st0" width="5.3" height="39.8"/>
<polygon class="st0" points="-124.1,439 -124.1,399.2 -118.7,399.2 -97.8,430.5 -97.8,399.2 -92.7,399.2 -92.7,439 -98.1,439 
	-119,407.7 -119,439 "/>
<polygon class="st0" points="-67.1,439 -67.1,403.9 -80.2,403.9 -80.2,399.2 -48.6,399.2 -48.6,403.9 -61.8,403.9 -61.8,439 "/>
<polygon class="st0" points="-36.4,439 -36.4,399.2 -7.7,399.2 -7.7,403.9 -31.2,403.9 -31.2,416.1 -9.2,416.1 -9.2,420.8 
	-31.2,420.8 -31.2,434.3 -6.8,434.3 -6.8,439 "/>
<polygon class="st0" points="7.1,439 7.1,399.2 12.5,399.2 33.4,430.5 33.4,399.2 38.5,399.2 38.5,439 33.1,439 12.2,407.7 
	12.2,439 "/>
<g>
	<defs>
		<rect id="SVGID_1_" x="-303" y="311.4" width="522" height="149.9"/>
	</defs>
	<clipPath id="SVGID_2_">
		<use xlink:href="#SVGID_1_"  style="overflow:visible;"/>
	</clipPath>
	<g class="st1">
		<path class="st0" d="M52.2,426.2l5-0.4c0.1,1.7,0.7,3.4,1.6,4.9c1,1.4,2.4,2.5,4,3.1c1.9,0.8,4,1.2,6.1,1.2c1.8,0,3.6-0.3,5.3-0.9
			c1.4-0.5,2.6-1.3,3.4-2.5c0.7-1,1.1-2.2,1.1-3.4c0-1.2-0.4-2.4-1.1-3.3c-1-1.1-2.2-1.9-3.6-2.4c-2.3-0.8-4.7-1.4-7.1-1.9
			c-2.6-0.5-5.2-1.4-7.7-2.5c-1.7-0.8-3.2-2.1-4.2-3.7c-0.9-1.5-1.4-3.2-1.4-4.9c0-2,0.6-3.9,1.7-5.6c1.2-1.8,3-3.2,5-4
			c2.3-0.9,4.8-1.4,7.3-1.4c2.7-0.1,5.3,0.4,7.8,1.4c2.1,0.8,3.9,2.3,5.2,4.2c1.2,1.9,1.9,4,2,6.3l-5,0.4c-0.1-2.2-1.1-4.2-2.8-5.7
			c-1.6-1.3-3.9-1.9-6.9-1.9c-3.2,0-5.5,0.6-7,1.8c-1.4,1-2.2,2.5-2.2,4.2c0,1.3,0.5,2.6,1.5,3.5c1,0.9,3.7,1.9,7.9,2.8
			c3,0.6,6,1.4,8.8,2.5c2.1,0.9,3.8,2.3,5.1,4.1c1.1,1.7,1.7,3.6,1.6,5.7c0,2.1-0.6,4.2-1.8,6c-1.3,1.9-3.1,3.5-5.2,4.4
			c-2.4,1.1-5,1.6-7.7,1.6c-3.1,0.1-6.1-0.4-9-1.6c-2.3-1-4.3-2.6-5.7-4.7c-1.4-2.1-2.1-4.6-2.2-7.1"/>
		<rect x="98.7" y="399.2" class="st0" width="5.3" height="39.8"/>
		<polygon class="st0" points="130,439 130,403.9 116.9,403.9 116.9,399.2 148.4,399.2 148.4,403.9 135.3,403.9 135.3,439 		"/>
		<path class="st0" d="M171.7,439v-16.9l-15.3-22.9h6.4l7.8,12c1.4,2.2,2.8,4.5,4,6.7c1.2-2.1,2.6-4.4,4.3-7l7.7-11.7h6.1L177,422.1
			V439H171.7L171.7,439z"/>
		<path class="st2" d="M-261.6,337.1c-7.9,0-14.3,6.4-14.4,14.4v51.4l0,0c7.4-2,14.7-4.5,21.8-7.5c1.5-0.6,3-1.3,4.5-2
			c7.6-3.4,14.9-7.5,21.8-12.1c1.7-1.1,3.3-2.3,4.8-3.5c4.8-3.6,9.3-7.7,13.5-12c0.4-0.4,0.8-0.8,1.2-1.2c0-0.1-0.1-0.1-0.1-0.2
			c-4.8-8.5-4.4-19,0.9-27.2L-261.6,337.1L-261.6,337.1z"/>
		<path class="st3" d="M-201.2,376.9c-6.7,6-14,11.2-21.8,15.6v46.2h21.8V376.9z"/>
		<path class="st4" d="M-227.8,395.1c-7,3.7-14.3,6.9-21.8,9.6v33.9h21.8V395.1z"/>
	</g>
</g>
<g>
	<defs>
		<path id="SVGID_3_" d="M-275.1,412.1l-0.9,0.2V425c0.4,7.6,6.7,13.6,14.3,13.6h7.5v-32.3C-261,408.7-268,410.6-275.1,412.1"/>
	</defs>
	<clipPath id="SVGID_4_">
		<use xlink:href="#SVGID_3_"  style="overflow:visible;"/>
	</clipPath>
	<g class="st5">
		
			<linearGradient id="SVGID_5_" gradientUnits="userSpaceOnUse" x1="-582.6777" y1="649.5213" x2="-581.6777" y2="649.5213" gradientTransform="matrix(20.25 -35.074 35.074 20.25 -11252.1865 -33158.4648)">
			<stop  offset="0" style="stop-color:#F49700"/>
			<stop  offset="0.13" style="stop-color:#F7A600"/>
			<stop  offset="0.34" style="stop-color:#FAB700"/>
			<stop  offset="0.57" style="stop-color:#FCC100"/>
			<stop  offset="0.85" style="stop-color:#FDC400"/>
			<stop  offset="1" style="stop-color:#FDC400"/>
		</linearGradient>
		<polygon class="st6" points="-290,430.6 -270.5,396.9 -240.2,414.4 -259.6,448.1 		"/>
	</g>
</g>
<g>
	<defs>
		<rect id="SVGID_6_" x="-303" y="311.4" width="522" height="149.9"/>
	</defs>
	<clipPath id="SVGID_7_">
		<use xlink:href="#SVGID_6_"  style="overflow:visible;"/>
	</clipPath>
	<g class="st7">
		<path class="st8" d="M-196.2,375.5v63.2h7.5c7.9,0,14.3-6.4,14.3-14.4v-48.8c-6.4,2.9-13.7,3.1-20.3,0.6
			C-195.2,375.9-195.7,375.7-196.2,375.5"/>
	</g>
</g>
<g>
	<defs>
		<path id="SVGID_8_" d="M-187.6,364.5c-7.2-1.3-12.1-8.2-10.8-15.4c1-5.6,5.4-10,11.1-10.8c0.7-0.1,1.3-0.1,2-0.1
			c7.3,0,13.3,6,13.2,13.4c0,7.3-6,13.3-13.4,13.2C-186.2,364.7-186.9,364.6-187.6,364.5 M-199,336.2c-8.4,7.6-9.1,20.5-1.5,28.9
			s20.5,9.1,28.9,1.5s9.1-20.5,1.5-28.9c-3.9-4.3-9.4-6.8-15.2-6.8C-190.4,330.9-195.2,332.8-199,336.2"/>
	</defs>
	<clipPath id="SVGID_9_">
		<use xlink:href="#SVGID_8_"  style="overflow:visible;"/>
	</clipPath>
	<g class="st9">
		
			<linearGradient id="SVGID_10_" gradientUnits="userSpaceOnUse" x1="-581.8048" y1="647.2019" x2="-580.8048" y2="647.2019" gradientTransform="matrix(26.57 -46.0206 46.0206 26.57 -14522.5811 -43600.3359)">
			<stop  offset="0" style="stop-color:#F49700"/>
			<stop  offset="0.13" style="stop-color:#F7A600"/>
			<stop  offset="0.34" style="stop-color:#FAB700"/>
			<stop  offset="0.57" style="stop-color:#FCC100"/>
			<stop  offset="0.85" style="stop-color:#FDC400"/>
			<stop  offset="1" style="stop-color:#FDC400"/>
		</linearGradient>
		<polygon class="st10" points="-223.5,361.6 -195.5,313.2 -147.1,341.2 -175.1,389.6 		"/>
	</g>
</g>
<g>
	<defs>
		<rect id="SVGID_11_" x="-301" y="310" width="522" height="149.9"/>
	</defs>
	<clipPath id="SVGID_12_">
		<use xlink:href="#SVGID_11_"  style="overflow:visible;"/>
	</clipPath>
	<g class="st11">
		<path class="st8" d="M-189.1,343.7c-1.1,1-2,2.4-2.4,3.8c-0.3,0.8-0.4,1.7-0.4,2.5c0,4.8,3.9,8.7,8.7,8.7l0,0c0.2,0,0.5,0,0.7,0
			c4.8-0.4,8.3-4.6,7.9-9.3c-0.4-4.8-4.6-8.3-9.3-7.9C-185.9,341.6-187.7,342.4-189.1,343.7"/>
	</g>
</g>
<text transform="matrix(1 0 0 1 -149.6002 371.8904)" class="st12 st13">Recession Timing by</text>
</svg>
