<svg version="1.1" id="Layer_1" xmlns="http://www.w3.org/2000/svg" xmlns:xlink="http://www.w3.org/1999/xlink" x="0px" y="0px"
	 width="187.656px" height="68.23px" viewBox="0 0 187.656 68.23" enable-background="new 0 0 187.656 68.23" xml:space="preserve">
<symbol  id="Ribbon" viewBox="-32.023 -32.025 64.046 64.048">
	<g>
		<path fill="none" stroke="#000000" stroke-width="0.25" d="M-0.423,31.898c5.294,0.066,6.396-13.717,9.156-15.153
			c3.144-1.638,15.979,4.446,19.127-1.188c2.781-4.978-8.996-12.442-9.014-15.586C18.828-3.3,30.407-11.145,27.645-15.943
			C24.866-20.77,12.278-14.657,9.2-16.379c-2.961-1.654-4.094-15.569-9.456-15.521C-5.503-31.849-6.287-17.947-9-16.47
			c-3.015,1.642-15.78-4.537-18.826,0.914c-2.905,5.197,8.934,12.841,9.024,16.115c0.084,3.041-11.536,10.502-9.029,15
			c2.782,4.989,15.509-0.836,18.668,0.932C-6.333,18.073-5.555,31.833-0.423,31.898z"/>
		<path fill="none" stroke="#000000" stroke-width="0.25" d="M1.395,31.426c5.242-0.248,5.535-13.911,8.188-15.519
			c2.97-1.8,15.946,3.503,18.727-2.107c2.479-5.001-9.547-11.729-9.727-14.826c-0.198-3.245,10.779-11.634,7.719-16.236
			c-3.048-4.613-15.086,2.136-18.187,0.613c-2.97-1.46-4.807-15.136-10.072-14.796c-5.22,0.337-5.258,14.141-7.876,15.787
			c-2.845,1.791-15.731-3.632-18.446,1.784c-2.589,5.21,9.449,12.126,9.705,15.343c0.243,3.056-10.72,11.092-7.894,15.459
			c3.057,4.726,15.163-1.729,18.326-0.175C-5.267,18.168-3.7,31.674,1.395,31.426z"/>
		<path fill="none" stroke="#000000" stroke-width="0.25" d="M3.213,30.953c5.19-0.564,4.674-14.104,7.219-15.885
			c2.796-1.956,15.911,2.559,18.325-3.026c2.174-5.028-10.09-11.02-10.439-14.065c-0.369-3.217,9.988-12.145,6.641-16.562
			c-3.329-4.39-14.806,2.986-17.928,1.667C4.052-18.186,1.51-31.619-3.658-30.994c-5.192,0.628-4.484,14.324-7.007,16.148
			c-2.676,1.936-15.699-2.734-18.066,2.651c-2.29,5.213,9.97,11.412,10.386,14.57c0.404,3.067-9.912,11.682-6.758,15.917
			c3.322,4.46,14.819-2.629,17.983-1.28C-4.2,18.26-1.844,31.517,3.213,30.953z"/>
		<path fill="none" stroke="#000000" stroke-width="0.25" d="M5.033,30.479c5.138-0.88,3.813-14.292,6.249-16.25
			c2.623-2.106,15.873,1.611,17.924-3.943C31.072,5.229,18.569-0.022,18.054-3.021c-0.548-3.188,9.205-12.656,5.561-16.885
			c-3.6-4.174-14.526,3.842-17.669,2.718C2.957-18.256-0.29-31.448-5.358-30.542c-5.168,0.924-3.714,14.503-6.14,16.508
			c-2.509,2.073-15.656-1.831-17.687,3.522c-1.98,5.223,10.496,10.698,11.068,13.797c0.57,3.083-9.113,12.274-5.623,16.376
			c3.576,4.201,14.478-3.529,17.641-2.385C-3.129,18.351,0.011,31.357,5.033,30.479z"/>
		<path fill="none" stroke="#000000" stroke-width="0.25" d="M6.851,30.008c5.086-1.197,2.955-14.478,5.28-16.616
			c2.454-2.256,15.833,0.662,17.523-4.862c1.557-5.087-11.186-9.597-11.863-12.545c-0.727-3.161,8.424-13.176,4.481-17.208
			c-3.869-3.959-14.246,4.691-17.41,3.77C1.863-18.331-2.09-31.272-7.059-30.09c-5.141,1.224-2.944,14.678-5.271,16.867
			c-2.344,2.206-15.61-0.927-17.307,4.393c-1.669,5.233,11.023,9.985,11.749,13.023c0.739,3.096-8.322,12.874-4.488,16.834
			c3.821,3.945,14.137-4.434,17.298-3.489C-2.059,18.439,1.867,31.199,6.851,30.008z"/>
		<path fill="none" stroke="#000000" stroke-width="0.25" d="M8.669,29.536c5.034-1.513,2.1-14.66,4.312-16.982
			c2.287-2.399,15.789-0.29,17.123-5.78c1.243-5.119-11.738-8.886-12.578-11.785c-0.907-3.135,7.645-13.691,3.402-17.531
			C16.791-26.287,6.962-17,3.777-17.723c-3.006-0.684-7.666-13.37-12.536-11.916c-5.116,1.525-2.179,14.85-4.402,17.229
			c-2.183,2.335-15.562-0.02-16.927,5.262c-1.355,5.245,11.555,9.271,12.429,12.25c0.912,3.109-7.538,13.479-3.353,17.292
			c4.061,3.7,13.799-5.338,16.956-4.594C-0.987,18.523,3.722,31.041,8.669,29.536z"/>
		<path fill="none" stroke="#000000" stroke-width="0.25" d="M10.488,29.062c4.982-1.828,1.247-14.839,3.343-17.348
			c2.123-2.543,15.74-1.241,16.722-6.701c0.927-5.149-12.29-8.172-13.29-11.022c-1.089-3.105,6.867-14.211,2.323-17.855
			c-4.404-3.532-13.684,6.394-16.894,5.871c-3.015-0.489-8.377-12.914-13.151-11.19c-5.088,1.836-1.418,15.018-3.535,17.588
			c-2.027,2.462-15.512,0.888-16.547,6.132C-31.579-0.21-18.449,3.087-17.43,6.009c1.088,3.122-6.761,14.091-2.218,17.751
			c4.293,3.459,13.461-6.248,16.613-5.699C0.085,18.604,5.579,30.882,10.488,29.062z"/>
		<path fill="none" stroke="#000000" stroke-width="0.25" d="M12.307,28.59c4.93-2.146,0.398-15.016,2.372-17.713
			C16.642,8.194,30.367,8.684,31,3.258C31.605-1.926,18.158-4.2,16.998-7.007c-1.272-3.076,6.089-14.731,1.243-18.179
			c-4.668-3.321-13.402,7.232-16.634,6.922C-1.415-18.565-7.48-30.721-12.16-28.734c-5.058,2.147-0.662,15.185-2.666,17.947
			c-1.875,2.586-15.458,1.795-16.167,7.002c-0.718,5.271,12.63,7.837,13.791,10.703c1.269,3.131-5.986,14.712-1.082,18.21
			c4.523,3.226,13.123-7.161,16.271-6.804C1.16,18.683,7.434,30.724,12.307,28.59z"/>
		<path fill="none" stroke="#000000" stroke-width="0.25" d="M14.125,28.118c4.878-2.463-0.446-15.192,1.403-18.08
			C17.336,7.216,31.16,6.895,31.45,1.501c0.28-5.216-13.4-6.742-14.716-9.504c-1.461-3.045,5.317-15.263,0.165-18.503
			c-4.93-3.12-13.122,8.084-16.376,7.974c-3.031-0.107-9.796-11.999-14.384-9.751c-5.025,2.463,0.09,15.349-1.797,18.311
			c-1.726,2.708-15.401,2.699-15.787,7.869c-0.395,5.282,13.171,7.117,14.472,9.931c1.452,3.139-5.216,15.34,0.053,18.668
			c4.75,3,12.785-8.077,15.929-7.909C2.231,18.758,9.29,30.566,14.125,28.118z"/>
		<path fill="none" stroke="#000000" stroke-width="0.25" d="M-31.898-0.423c-0.068,5.294,13.715,6.396,15.153,9.156
			c1.638,3.145-4.446,15.979,1.188,19.127c4.978,2.779,12.444-8.996,15.586-9.016c3.272-0.018,11.115,11.562,15.914,8.799
			c4.826-2.777-1.286-15.365,0.435-18.443c1.654-2.961,15.57-4.094,15.52-9.456C31.849-5.503,17.948-6.286,16.47-9
			c-1.642-3.016,4.537-15.78-0.915-18.826c-5.198-2.906-12.841,8.936-16.117,9.024c-3.041,0.084-10.502-11.537-15-9.029
			c-4.989,2.782,0.836,15.509-0.929,18.668C-18.073-6.332-31.833-5.556-31.898-0.423z"/>
	</g>
</symbol>
<use xlink:href="#Ribbon"  width="64.046" height="64.048" x="-32.023" y="-32.025" transform="matrix(0.8935 0 0 -0.8935 34.6846 31.615)" overflow="visible"/>
<text transform="matrix(1 0 0 1 68.0469 28.6511)" font-family="'MyriadPro-Regular'" font-size="18">Company</text>
<text transform="matrix(1 0 0 1 68.0469 50.2507)" font-family="'MyriadPro-Regular'" font-size="18">Program Name</text>
<rect id="_x3C_Slice_x3E_" y="0" fill="none" width="206" height="86"/>
</svg>
